<?xml version="1.0" encoding="UTF-8"?>
<svg id="Layer_1" data-name="Layer 1" xmlns="http://www.w3.org/2000/svg" width="30" height="30" viewBox="0 0 30 30">
  <defs>
    <style>
      .cls-1 {
        fill: none;
        stroke: #020202;
        stroke-linecap: round;
        stroke-miterlimit: 10;
        stroke-width: .75px;
      }
    </style>
  </defs>
  <rect class="cls-1" x="1.33" y="2.02" width="27.34" height="23.35" rx="2.58" ry="2.58"/>
  <path class="cls-1" d="M3.46,5.15v15.56c0,1.05.85,1.9,1.9,1.9h18.97c1.05,0,1.9-.85,1.9-1.9V5.15"/>
  <path class="cls-1" d="M8.62,25.6s-.59,2.12-1.61,3.28c-.05.05-.01.13.06.13h15.4c.06,0,.1-.07.07-.12-.31-.49-1.42-2.29-1.45-3.28"/>
  <rect class="cls-1" x="7.26" y="15.57" width="6.52" height="5.8" rx=".8" ry=".8"/>
  <rect class="cls-1" x="16.22" y="15.57" width="6.52" height="5.8" rx=".8" ry=".8"/>
  <path class="cls-1" d="M8.84,18.18c.02.06.79.81,1.22,1.23.15.14.39.12.5-.05l1.61-2.26"/>
  <path class="cls-1" d="M17.82,18.18c.02.06.79.81,1.22,1.23.15.14.39.12.5-.05l1.61-2.26"/>
  <circle class="cls-1" cx="14.85" cy="5.95" r="2.5"/>
  <path class="cls-1" d="M13.78,8.45l-.46.71c-.37.57-.98.93-1.65,1l-.84.08c-.49.05-.87.46-.87.95l.27,3.07h9.68l.27-3.35c0-.49-.37-.9-.86-.95l-1.5-.16c-.64-.07-1.21-.4-1.59-.92l-.31-.43"/>
  <line class="cls-1" x1="12.45" y1="13.95" x2="12.45" y2="11.49"/>
  <line class="cls-1" x1="17.33" y1="13.93" x2="17.33" y2="11.47"/>
</svg>