<?xml version="1.0" encoding="UTF-8"?>
<svg id="Layer_3" data-name="Layer 3" xmlns="http://www.w3.org/2000/svg" width="30" height="30" viewBox="0 0 30 30">
  <defs>
    <style>
      .cls-1 {
        stroke: #000;
      }

      .cls-1, .cls-2 {
        fill: none;
        stroke-linecap: round;
        stroke-miterlimit: 10;
        stroke-width: .75px;
      }

      .cls-2 {
        stroke: #020202;
      }
    </style>
  </defs>
  <g>
    <rect class="cls-1" x="6.22" y="20.43" width="17.65" height="2.52" rx=".26" ry=".26"/>
    <path class="cls-1" d="M7.48,23.25v5.39c0,.1.11.17.25.17h14.44c.14,0,.25-.08.25-.17v-5.39"/>
    <path class="cls-1" d="M18.58,17.5h3.36s.08.02.11.06l1.75,2.91"/>
    <path class="cls-1" d="M6.22,20.43l1.57-2.87s.06-.07.11-.07h3.27"/>
    <rect class="cls-1" x="11.17" y="14.72" width="7.41" height="4.51"/>
    <path class="cls-2" d="M13.75,16.75s.53.55.82.83c.1.1.26.08.34-.03l1.08-1.52"/>
  </g>
  <g>
    <rect class="cls-2" x="11.53" y="1.08" width="7.02" height="8.23" rx="2.88" ry="2.88"/>
    <rect class="cls-2" x="21.63" y="6.35" width="5.51" height="6.3" rx="2.26" ry="2.26"/>
    <rect class="cls-2" x="2.95" y="6.16" width="5.51" height="6.3" rx="2.26" ry="2.26"/>
    <path class="cls-2" d="M13.32,9.31s-.09.75-1.07,1.34-4.03.49-3.39,6.06"/>
    <path class="cls-2" d="M16.6,9.31s.09.75,1.07,1.34,4.03.49,3.39,6.06"/>
    <path class="cls-2" d="M1.2,17.11s-.6-3.83,3.28-4.64"/>
    <path class="cls-2" d="M6.61,12.46s1.7,1.21,2.16,1.45"/>
    <path class="cls-2" d="M28.56,16.92s.69-3.46-3.19-4.27"/>
    <path class="cls-2" d="M23.21,12.56s-1.76.92-2.23,1.17"/>
  </g>
</svg>