<?xml version="1.0" encoding="UTF-8"?>
<svg id="Layer_4" data-name="Layer 4" xmlns="http://www.w3.org/2000/svg" width="30" height="30" viewBox="0 0 30 30">
  <defs>
    <style>
      .cls-1 {
        fill: none;
        stroke: #000;
        stroke-linecap: round;
        stroke-miterlimit: 10;
        stroke-width: .75px;
      }
    </style>
  </defs>
  <rect class="cls-1" x=".96" y="25.08" width="28.27" height="3.43" rx=".98" ry=".98"/>
  <polyline class="cls-1" points="2.91 24.5 2.91 18.11 9.63 18.11 9.63 25.08"/>
  <polyline class="cls-1" points="20.65 25.08 20.65 14.85 27.36 14.85 27.36 24.73"/>
  <g>
    <line class="cls-1" x1="18.43" y1="22.34" x2="18.43" y2="25.08"/>
    <line class="cls-1" x1="18.43" y1="18.69" x2="18.43" y2="20.34"/>
    <polyline class="cls-1" points="11.84 25.08 11.84 11.73 18.43 11.73 18.43 16.12"/>
  </g>
  <path class="cls-1" d="M5.79,12.29h.96c1.59,0,2.88,1.29,2.88,2.88v1.04H2.91v-1.04c0-1.59,1.29-2.88,2.88-2.88Z"/>
  <circle class="cls-1" cx="6.27" cy="10.01" r="2.28"/>
  <path class="cls-1" d="M14.72,5.85h.96c1.59,0,2.88,1.29,2.88,2.88v1.04h-6.71v-1.04c0-1.59,1.29-2.88,2.88-2.88Z"/>
  <circle class="cls-1" cx="15.2" cy="3.57" r="2.28"/>
  <path class="cls-1" d="M23.53,9.17h.96c1.59,0,2.88,1.29,2.88,2.88v1.04h-6.71v-1.04c0-1.59,1.29-2.88,2.88-2.88Z"/>
  <circle class="cls-1" cx="24" cy="6.89" r="2.28"/>
</svg>